<svg xmlns="http://www.w3.org/2000/svg" width="764" height="124" viewBox="0 0 764 124">
  <g fill="none" fill-rule="evenodd">
    <path fill="#11263F" d="M762.663 24.061C762.272 23.629 761.859 23.412 761.427 23.412L753.755 23.417 756.216 7.94C756.302 7.507 756.128 7.074 755.695 6.639 755.26 6.208 754.784 5.99 754.264 5.99L739.699 5.999C739.265 5.999 738.81 6.217 738.335 6.65 737.857 7.085 737.576 7.518 737.49 7.951L726.349 78.831C725.657 83.252 725.746 86.808 726.616 89.494 727.483 92.181 728.784 94.261 730.521 95.733 732.255 97.208 734.313 98.181 736.699 98.656 739.083 99.131 741.401 99.368 743.657 99.3670032 744.87 99.366 746.171 99.3 747.559 99.17 748.944 99.039 750.028 98.887 750.81 98.712 751.329 98.54 751.826 98.256 752.304 97.866 752.779 97.475 753.062 97.021 753.148 96.501L755.221 83.235C755.307 82.802 755.155 82.389 754.766 82 754.375 81.609 753.962 81.415 753.529 81.415 752.922 81.59 752.055 81.698 750.929 81.742 749.801 81.787 748.761 81.808 747.808 81.808 747.027 81.809 746.442 81.549 746.052 81.03 745.661 80.509 745.422 79.904 745.336 79.21 745.248 78.516 745.247 77.801 745.335 77.064 745.419 76.328 745.506 75.743 745.593 75.307L750.516 43.705 758.188 43.7C758.621 43.7 759.099 43.462 759.618 42.984 760.138 42.508 760.44 42.008 760.527 41.488L763.119 25.361C763.204 24.928 763.053 24.496 762.663 24.061M703.831 42.822L702.406 52.056 694.604 52.061 696.028 42.827C696.2 41.787 696.721 40.986 697.588 40.421 698.453 39.857 699.363 39.574 700.318 39.573 701.443 39.573 702.354 39.855 703.049 40.417 703.742 40.982 704.003 41.782 703.831 42.822zM702.907 20.7149969C695.365 20.72 689.449 22.934 685.161 27.358 680.872 31.783 678.08 38.071 676.784 46.219L672.38 74.702C671.085 82.765 671.889 89.006 674.798 93.426 677.703 97.846 682.929 100.053 690.471 100.049005 697.493 100.045 703.278 97.94 707.828 93.731 712.377 89.525 715.342 82.999 716.724 74.155 716.809 73.722 716.658 73.29 716.269 72.855 715.878 72.421 715.422 72.205 714.902 72.205L701.508 72.213C700.813 72.213 700.207 72.431 699.688 72.865 699.167 73.3 698.863 73.733 698.778 74.166 698.432 76.074 697.825 77.612 696.96 78.783 696.094 79.954 694.924 80.541 693.45 80.541 692.495 80.542 691.737 80.239 691.174 79.631 690.608 79.027 690.413 78.247 690.588 77.292L692.401 66.497 715.289 66.483C716.069 66.483 716.762 66.179 717.368 65.572 717.974 64.965 718.363 64.316 718.538 63.62L721.259 46.193C722.555 38.045 721.726 31.758 718.776 27.338 715.825 22.919 710.535 20.712 702.907 20.7149969L702.907 20.7149969zM665.07 27.111C664.028 25.118 662.532 23.558 660.581 22.432 658.63 21.307 656.179 20.744 653.233 20.7459947 652.452 20.7459947 651 20.921 648.877 21.268 646.751 21.617 644.434 22.832 641.922 24.914L641.661 23.874C641.485 23.441 641.248 23.008 640.945 22.574 640.641 22.141 640.229 21.923 639.709 21.923L627.615 21.931C627.181 21.931 626.726 22.149 626.251 22.583 625.773 23.017 625.491 23.45 625.406 23.883L613.746 97.494C613.659 97.929 613.812 98.362 614.202 98.794 614.593 99.229 615.004 99.444 615.438 99.444L630.003 99.435C630.522 99.434 631.043 99.219 631.563 98.784 632.082 98.35 632.385 97.918 632.472 97.483L641.022 43.38C641.194 42.254 641.649 41.429 642.387 40.909 643.122 40.388 643.967 40.128 644.922 40.127 645.874 40.127 646.633 40.409 647.198 40.971 647.761 41.535 647.956 42.294 647.785 43.2459947L639.234 97.479C639.147 97.914 639.3 98.346 639.69 98.779 640.081 99.213 640.491 99.428 640.927 99.428L655.491 99.42C656.011 99.42 656.53 99.204 657.051 98.768 657.57 98.336 657.873 97.903 657.96 97.467L666.511 43.235C667.028 39.941 667.177 36.927 666.96 34.197 666.741 31.465 666.112 29.105 665.07 27.111"/>
    <path fill="#11263F" d="M32.9957521 894.649C32.5617521 894.216 32.0857521 894 31.5657521 894L17.0007521 894.008C16.5667521 894.009 16.1107521 894.226 15.6357521 894.66 15.1577521 895.095 14.8767521 895.528 14.7917521 895.961L12.7187521 908.836C12.6317521 909.271 12.7837521 909.704 13.1747521 910.136 13.5647521 910.571 13.9757521 910.786 14.4097521 910.786L28.9747521 910.777C29.4947521 910.777 30.0147521 910.561 30.5347521 910.126 31.0547521 909.692 31.3577521 909.259 31.4437521 908.825L33.5177521 895.949C33.6027521 895.516 33.4297521 895.084 32.9957521 894.649M28.4567521 914.028L13.8917521 914.037C13.4567521 914.037 13.0017521 914.256 12.5267521 914.688 12.0497521 915.123 11.7677521 915.556 11.6827521 915.989L.0237520921 989.6C-.0632479079 990.035.0887520921 990.467.479752092 990.9.868752092 991.335 1.27975209 991.549 1.71475209 991.549L16.2787521 991.541C16.7997521 991.541 17.3187521 991.325 17.8397521 990.889 18.3597521 990.457 18.6617521 990.023 18.7487521 989.589L30.4087521 915.977C30.4927521 915.545 30.3197521 915.112 29.8877521 914.677 29.4517521 914.245 28.9767521 914.028 28.4567521 914.028" transform="translate(580.953 -892.086)"/>
    <path fill="#11263F" d="M575.147 25.539C573.542 23.849 571.482 22.637 568.968 21.902 566.453 21.168 563.679 20.799 560.646 20.8009919 557.524 20.803 554.599 21.174 551.868 21.912 549.138 22.651 546.688 23.865 544.523 25.557 542.355 27.25 540.537 29.462 539.065 32.193 537.592 34.924 536.554 38.241 535.95 42.143 535.345 46.304 535.435 49.773 536.216 52.546 536.999 55.321 538.17 57.681 539.732 59.631 541.293 61.581 543.05 63.25 545.001 64.634 546.953 66.021 548.752 67.364 550.401 68.663 552.047 69.962 553.371 71.349 554.369 72.822 555.366 74.296 555.692 76.117 555.348 78.283 555.089 80.104 554.525 81.404 553.66 82.185 552.793 82.965 551.71 83.356 550.409 83.357 549.455 83.358 548.739 83.121 548.263 82.643 547.786 82.169 547.46 81.584 547.287 80.888 547.112 80.196 547.069 79.393 547.155 78.483 547.24 77.573 547.327 76.685 547.414 75.816 547.586 75.212 547.456 74.733 547.023 74.386 546.588 74.042 546.113 73.867 545.592 73.867L532.328 73.876C531.894 73.876 531.418 74.093 530.898 74.527 530.378 74.962 530.074 75.394 529.988 75.827 528.778 83.546 529.672 89.526 532.665 93.771 535.659 98.018 540.97 100.139 548.599 100.134009 552.673 100.131 556.206 99.414 559.196 97.982 562.186 96.549 564.741 94.708 566.865 92.451 568.987 90.196 570.676 87.66 571.932 84.84 573.186 82.023 574.029 79.182 574.462 76.321 574.981 72.679 574.827 69.624 574.002 67.153 573.176 64.682 571.984 62.538 570.422 60.718 568.861 58.899 567.104 57.296 565.153 55.91 563.201 54.525 561.4 53.116 559.753 51.686 558.105 50.256 556.803 48.655 555.849 46.878 554.893 45.102 554.632 42.912 555.065 40.311 555.15 39.618 555.498 38.945 556.104 38.295 556.709 37.643 557.534 37.318 558.574 37.318 560.047 37.317 560.936 37.88 561.242 39.006 561.545 40.134 561.61 41.565 561.439 43.297L561.18 44.728C561.093 45.337 561.288 45.813 561.766 46.159 562.241 46.505 562.741 46.678 563.262 46.678L576.136 46.671C576.568 46.67 577.023 46.455 577.501 46.019 577.976 45.587 578.258 45.153 578.345 44.718L578.604 43.027C579.207 38.781 579.185 35.225 578.532 32.364 577.88 29.504 576.752 27.228 575.147 25.539M501.774 80.005C501.6 81.133 501.06 81.957 500.15 82.477 499.24 82.998 498.35 83.258 497.484 83.2590023 496.27 83.26 495.316 82.935 494.623 82.286 493.928 81.636 493.797 80.185 494.23 77.929L494.748 74.808C495.007 72.902 495.504 71.406 496.241 70.321 496.976 69.237 497.756 68.414 498.58 67.848 499.403 67.285 500.248 66.918 501.116 66.742 501.981 66.568 502.718 66.481 503.326 66.481L503.977 66.48 501.774 80.005zM507.2 20.8329946C500.351 20.837 494.738 22.879 490.364 26.956 485.987 31.034 483.065 37.84 481.598 47.378 481.511 47.812 481.664 48.245 482.054 48.677 482.444 49.112 482.855 49.327 483.29 49.327L496.554 49.319C497.074 49.318 497.594 49.103 498.114 48.668 498.634 48.235 498.936 47.801 499.023 47.367 499.454 44.3329946 500.126 42.404 501.035 41.579 501.945 40.755 502.921 40.342 503.961 40.341 505.174 40.34 506.106 40.688 506.757 41.38 507.408 42.075 507.517 43.765 507.085 46.452L506.178 52.174C505.223 52.002 504.206 51.894 503.123 51.85 502.037 51.808 501.062 51.787 500.196 51.788 493.52 51.792 488.146 54.028 484.075 58.495 480.002 62.962 477.362 68.881 476.153 76.25 475.635 79.286 475.485 82.232 475.704 85.092 475.921 87.954 476.552 90.511 477.594 92.764 478.636 95.019 480.175 96.816 482.213 98.158 484.25 99.502 486.874 100.171 490.083 100.170001 490.863 100.169 492.336 100.015 494.503 99.712 496.669 99.407 498.966 98.3 501.394 96.391L501.524 97.561C501.61 97.997 501.828 98.429 502.175 98.861 502.521 99.296 502.956 99.511 503.476 99.51L515.57 99.504C516.003 99.504 516.458 99.288 516.935 98.852 517.41 98.42 517.692 97.987 517.779 97.551L525.811 46.31C527.107 38.162 526.213 31.876 523.134 27.456 520.053 23.036 514.742 20.829 507.2 20.8329946L507.2 20.8329946zM451.817 43.624L447.283 72.366C447.108 73.494 446.633 74.317 445.854 74.837 445.074 75.358 444.249 75.619 443.383 75.62 442.516 75.62 441.778 75.382 441.172 74.905 440.565 74.43 440.347 73.757 440.521 72.89L445.185 43.498C445.357 42.545 445.812 41.787 446.549 41.221 447.284 40.658 448.129 40.3749971 449.084 40.3749971 450.037 40.374 450.775 40.633 451.295 41.153 451.815 41.673 451.989 42.498 451.817 43.624zM471.96 22.025L459.867 22.032C459.346 22.032 458.869 22.25 458.437 22.683 458.002 23.118 457.657 23.551 457.397 23.984L457.007 24.634C455.011 22.815 452.974 21.733 450.893 21.387 448.812 21.043 447.425 20.8699957 446.731 20.8699957 443.783 20.8699957 441.161 21.437 438.866 22.565 436.567 23.694 434.596 25.278 432.951 27.315 431.304 29.354 429.94 31.738 428.859 34.469 427.775 37.201 426.977 40.215 426.459 43.509L421.795 72.641C421.277 75.849 421.126 78.818 421.345 81.549 421.562 84.28 422.171 86.666 423.17 88.701 424.167 90.738 425.643 92.32 427.594 93.444 429.545 94.571 431.994 95.132 434.942 95.13 435.635 95.13 436.806 94.999 438.453 94.739 440.099 94.477 441.964 93.696 444.043 92.394L442.618 101.238C442.444 102.191 442.035 102.971 441.385 103.58 440.735 104.185 439.845 104.491 438.72 104.492 436.291 104.493 435.337 103.063 435.856 100.202 435.941 99.767 435.768 99.337 435.334 98.901 434.899 98.469 434.424 98.252 433.904 98.252L420.77 98.26C420.335 98.26 419.879 98.478 419.405 98.911 418.928 99.346 418.646 99.777 418.56 100.212 417.437 107.669 418.178 113.497 420.782 117.702 423.385 121.904 428.37 124.004 435.74 124.000006 443.195 123.995 449.088 121.781 453.421 117.357 457.753 112.932 460.567 106.689 461.863 98.626L473.652 23.974C473.737 23.542 473.586 23.109 473.196 22.674 472.806 22.242 472.393 22.024 471.96 22.025L471.96 22.025zM391.111 80.072C390.937 81.2 390.397 82.023 389.487 82.544 388.577 83.064 387.687 83.325 386.822 83.326 385.607 83.326 384.654 83.003 383.96 82.352 383.265 81.703 383.134 80.252 383.568 77.996L384.085 74.875C384.345 72.968 384.842 71.472 385.579 70.387 386.313 69.303 387.093 68.48 387.917 67.915 388.741 67.351 389.586 66.984 390.453 66.808 391.318 66.634 392.056 66.547 392.664 66.546L393.314 66.546 391.111 80.072zM396.538 20.8999915C389.688 20.904 384.075 22.945 379.701 27.022 375.324 31.1 372.402 37.907 370.935 47.444 370.848 47.879 371.001 48.311 371.391 48.744 371.782 49.178 372.192 49.393 372.627 49.393L385.891 49.385C386.411 49.384 386.931 49.17 387.451 48.734 387.971 48.301 388.273 47.868 388.36 47.433 388.792 44.399 389.463 42.47 390.373 41.645 391.283 40.822 392.258 40.409 393.298 40.408 394.511 40.407 395.444 40.754 396.095 41.447 396.746 42.141 396.854 43.832 396.422 46.518L395.516 52.24C394.561 52.068 393.543 51.961 392.46 51.917 391.375 51.875 390.399 51.853 389.534 51.854 382.857 51.858 377.484 54.094 373.413 58.561 369.339 63.029 366.7 68.948 365.491 76.316 364.973 79.352 364.822 82.298 365.042 85.159 365.258 88.02 365.889 90.578 366.931 92.831 367.973 95.086 369.512 96.882 371.551 98.224 373.588 99.568 376.211 100.238 379.42 100.236004 380.2 100.235 381.673 100.082 383.841 99.778 386.007 99.473 388.304 98.367 390.731 96.458L390.862 97.628C390.947 98.063 391.165 98.496 391.513 98.927 391.858 99.363 392.293 99.578 392.813 99.577L404.908 99.57C405.34 99.57 405.795 99.354 406.272 98.919 406.747 98.486 407.03 98.053 407.117 97.618L415.148 46.377C416.444 38.228 415.551 31.942 412.471 27.522 409.391 23.102 404.08 20.895 396.538 20.8999915L396.538 20.8999915zM359.09 27.359C358.049 25.324 356.553 23.742 354.602 22.616 352.65 21.491 350.199 20.927 347.253 20.9289947 346.906 20.9289947 346.233 20.974 345.237 21.06 344.24 21.149 343.092 21.409 341.792 21.842 340.492 22.279 339.127 22.972 337.697 23.925 336.267 24.881 334.945 26.226 333.733 27.96 332.691 25.794 331.13 24.082 329.049 22.826 326.967 21.571 324.538 20.943 321.765 20.944 320.984 20.945 319.532 21.14 317.409 21.532 315.284 21.923 312.966 23.118 310.454 25.113L310.193 24.073C310.018 23.639 309.78 23.207 309.477 22.772 309.172 22.339 308.762 22.123 308.242 22.123L296.147 22.129C295.713 22.13 295.258 22.348 294.783 22.781 294.305 23.216 294.023 23.649 293.938 24.083L282.279 97.693C282.192 98.128 282.344 98.56 282.735 98.993 283.125 99.427 283.536 99.643 283.971 99.643L298.535 99.633C299.055 99.633 299.575 99.418 300.095 98.983 300.614 98.549 300.917 98.117 301.004 97.682L309.555 43.58C309.727 42.453 310.181 41.629 310.919 41.108 311.654 40.587 312.499 40.326 313.454 40.326 314.407 40.326 315.165 40.607 315.73 41.17 316.293 41.734 316.489 42.492 316.317 43.445L307.767 97.677C307.68 98.113 307.832 98.546 308.223 98.977 308.613 99.413 309.023 99.628 309.458 99.628L324.023 99.619C324.543 99.618 325.063 99.403 325.583 98.967 326.103 98.534 326.405 98.101 326.492 97.667L335.043 43.434C335.215 42.481 335.669 41.722 336.407 41.158 337.142 40.594 337.987 40.311 338.942 40.31 339.895 40.31 340.653 40.592 341.218 41.155 341.781 41.718 341.977 42.477 341.805 43.4289947L333.254 97.663C333.167 98.097 333.32 98.53 333.71 98.962 334.101 99.397 334.512 99.612 334.947 99.612L349.511 99.603C350.031 99.603 350.551 99.387 351.071 98.952 351.591 98.519 351.894 98.087 351.98 97.651L360.531 43.548C361.049 40.254 361.197 37.241 360.98 34.51 360.761 31.78 360.132 29.396 359.09 27.359M276.45 25.718C274.844 24.028 272.785 22.817 270.271 22.081 267.755 21.346 264.981 20.978 261.948 20.9799919 258.827 20.982 255.901 21.353 253.171 22.091 250.44 22.831 247.99 24.045 245.826 25.737 243.658 27.428 241.839 29.64 240.368 32.372 238.894 35.104 237.856 38.421 237.253 42.322 236.647 46.484 236.737 49.952 237.519 52.725 238.301 55.501 239.473 57.861 241.035 59.81 242.596 61.76 244.353 63.429 246.304 64.814 248.255 66.201 250.055 67.543 251.703 68.842 253.35 70.141 254.673 71.529 255.672 73.001 256.668 74.475 256.995 76.296 256.65 78.462 256.392 80.283 255.827 81.584 254.962 82.364 254.095 83.145 253.012 83.536 251.711 83.537 250.757 83.537 250.042 83.299 249.566 82.823 249.088 82.347 248.763 81.762 248.59 81.067 248.415 80.375 248.371 79.573 248.458 78.662 248.543 77.752 248.63 76.864 248.717 75.996 248.889 75.39 248.758 74.913 248.326 74.566 247.89 74.22 247.415 74.046 246.895 74.046L233.631 74.054C233.196 74.054 232.72 74.273 232.201 74.706 231.68 75.14 231.376 75.574 231.291 76.006 230.081 83.725 230.974 89.706 233.968 93.951 236.961 98.198 242.272 100.318 249.901 100.313009 253.976 100.311 257.509 99.593 260.499 98.161 263.489 96.728 266.043 94.886 268.167 92.63 270.29 90.375 271.979 87.838 273.234 85.019 274.489 82.203 275.332 79.361 275.765 76.5 276.283 72.858 276.129 69.802 275.305 67.333 274.479 64.862 273.286 62.717 271.724 60.898 270.163 59.078 268.407 57.476 266.455 56.088 264.504 54.705 262.703 53.296 261.056 51.866 259.408 50.436 258.105 48.835 257.152 47.056 256.195 45.282 255.934 43.09 256.368 40.49 256.453 39.796 256.8 39.125 257.407 38.473 258.012 37.823 258.836 37.498 259.877 37.498 261.35 37.496 262.238 38.06 262.544 39.186 262.847 40.313 262.913 41.744 262.742 43.477L262.482 44.908C262.396 45.515 262.59 45.993 263.068 46.337 263.544 46.685 264.044 46.858 264.564 46.857L277.438 46.849C277.871 46.849 278.326 46.633 278.803 46.199 279.278 45.765 279.56 45.333 279.647 44.897L279.907 43.207C280.509 38.96 280.487 35.404 279.835 32.543 279.183 29.682 278.054 27.408 276.45 25.718M231.587 24.444C231.197 23.969 230.784 23.73 230.351 23.73L221.378 23.736 221.508 22.565C221.768 21.439 222.307 20.289 223.131 19.118 223.954 17.947 225.361 17.361 227.356 17.36 228.57 17.359 229.698 17.403 230.737 17.488 231.778 17.575 232.514 17.662 232.949 17.747 233.382 17.747 233.858 17.551 234.378 17.161 234.898 16.77 235.159 16.359 235.158 15.924L237.361 2.659C237.446 2.139 237.295 1.683 236.905 1.294 236.515.904 236.102.624 235.669.45 234.802.278 233.719.148 232.418.061 231.118-.023 229.859-.067 228.646-.067 226.391-.065 223.921.131 221.234.523 218.546.915 215.968 1.914 213.499 3.519 211.029 5.125 208.82 7.51 206.871 10.675 204.922 13.842 203.515 18.155 202.653 23.617L190.993 97.748C190.906 98.183 191.059 98.616 191.449 99.047 191.84 99.482 192.25 99.6970035 192.685 99.6970035L207.25 99.689C207.77 99.688 208.29 99.472 208.81 99.038 209.33 98.604 209.632 98.171 209.719 97.737L218.14 44.024 227.112 44.019C227.545 44.018 228.022 43.802 228.542 43.368 229.063 42.934 229.365 42.502 229.452 42.066L231.913 25.94C232.085 25.42 231.978 24.921 231.587 24.444M192.057 24.468C191.666 23.994 191.254 23.754 190.821 23.754L181.848 23.759 181.977 22.588C182.237 21.462 182.776 20.313 183.601 19.141 184.423 17.971 185.831 17.385 187.826 17.383 189.04 17.382 190.167 17.427 191.207 17.511 192.247 17.598 192.983 17.685 193.418 17.77 193.851 17.77 194.328 17.575 194.848 17.184 195.368 16.794 195.628 16.383 195.628 15.949L197.831 2.683C197.916 2.163 197.765 1.708 197.375 1.318 196.984.927 196.571.647 196.139.473 195.271.301 194.188.171 192.887.085 191.587.001 190.329-.0420166735 189.116-.0420166735 186.86-.041 184.39.155 181.704.547 179.016.938 176.438 1.938 173.969 3.543 171.499 5.149 169.29 7.534 167.341 10.699 165.392 13.866 163.984 18.178 163.122 23.64L151.463 97.771C151.376 98.207 151.528 98.639 151.919 99.072 152.31 99.506 152.72 99.721 153.155 99.721L167.719 99.712C168.239 99.712 168.76 99.497 169.279 99.061 169.799 98.628 170.102 98.195 170.189 97.76L178.609 44.047 187.582 44.043C188.015 44.043 188.492 43.827 189.012 43.391 189.532 42.959 189.834 42.525 189.922 42.09L192.383 25.963C192.555 25.443 192.447 24.946 192.057 24.468M130.732 21.0829946C123.189 21.087 117.274 23.301 112.985 27.725 108.697 32.15 105.905 38.438 104.609 46.587L100.205 75.069C98.909 83.131 99.714 89.374 102.622 93.793 105.528 98.213 110.753 100.421 118.295 100.416008 125.838 100.412 131.753 98.197 136.042 93.773 140.332 89.349 143.123 83.106 144.418 75.042L148.823 46.56C150.119 38.412 149.312 32.126 146.406 27.706 143.498 23.286 138.273 21.079 130.732 21.0829946M100.825 22.921C100.477 22.489 100.087 22.272 99.654 22.272 97.314 22.273 94.755 22.73 91.982 23.642 89.207 24.553 86.913 25.748 85.092 27.222L85.091 24.231C85.003 23.798 84.766 23.366 84.375 22.931 83.984 22.499 83.53 22.281 83.008 22.282L70.915 22.289C70.48 22.289 70.024 22.507 69.55 22.94 69.073 23.375 68.792 23.808 68.706 24.241L57.046 97.852C56.959 98.287 57.112 98.719 57.502 99.152 57.893 99.587 58.303 99.802 58.737 99.8010035L73.302 99.793C73.823 99.793 74.343 99.577 74.862 99.141 75.382 98.709 75.685 98.276 75.772 97.84L82.767 53.102C83.286 50.068 84.475 47.835 86.339 46.403 88.202 44.971 90.347 44.254 92.775 44.253L96.156 44.251C96.589 44.251 97.067 44.013 97.586 43.535 98.106 43.059 98.409 42.559 98.496 42.039L101.346 24.221C101.346 23.789 101.17 23.356 100.825 22.921M37.75 43.668L32.31 78.262C32.135 79.129 31.681 79.802 30.945 80.279 30.208 80.756 29.405 80.9950029 28.54 80.9950029 27.672 80.996 26.935 80.736 26.329 80.216 25.906 79.854 25.676 79.342 25.631 78.686L31.277 43.087C31.501 42.32 31.88 41.733 32.418 41.33 33.11 40.809 33.933 40.5479974 34.887 40.5479974 35.84 40.547 36.599 40.83 37.164 41.392 37.727 41.957 37.922 42.714 37.75 43.668zM55.036 27.532C53.995 25.539 52.498 23.979 50.547 22.853 48.596 21.728 46.145 21.165 43.198 21.1669947 42.503 21.1669947 41.073 21.321 38.907 21.625 36.74 21.931 34.399 22.993 31.887 24.815L29.73 26.303C29.012 25.318 28.122 24.419 27.045 23.612 25.139 22.183 22.277 21.47 18.461 21.473L15.21 21.474C12.61 21.476 10.573 21.78 9.099 22.388 8.666 22.561 8.211 22.844 7.734 23.234 7.259 23.625 6.976 24.08 6.889 24.6L4.687 37.997C4.602 38.429 4.751 38.841 5.143 39.231 5.534 39.622 5.946 39.816 6.378 39.816 7.159 39.728 7.896 39.663 8.589 39.619 9.285 39.574 9.976 39.553 10.669 39.553 11.625 39.552 12.23 39.855 12.49 40.462 12.67 40.881 12.745 41.343 12.718 41.847L.024 121.837C-.064 122.269.089 122.702.48 123.136.87 123.569 1.281 123.786003 1.715 123.786003L16.28 123.777C16.8 123.777 17.32 123.559 17.84 123.126 18.36 122.691 18.663 122.257 18.75 121.825L20.128 113.144C20.16 113.06 20.19 112.975 20.207 112.89L22.601 97.797C24.323 99.083 25.96 99.854 27.511 100.112 29.072 100.371 30.198 100.501 30.892 100.501 33.926 100.499 36.569 99.931 38.824 98.805 41.076 97.677 43.026 96.093 44.673 94.054 46.317 92.018 47.661 89.631 48.7 86.9 49.738 84.169 50.517 81.199 51.035 77.99L56.477 43.656C56.994 40.362 57.143 37.349 56.926 34.618 56.707 31.887 56.078 29.527 55.036 27.532L55.036 27.532z"/>
  </g>
</svg>
