<svg xmlns="http://www.w3.org/2000/svg" width="352" height="118" viewBox="0 0 352 118">
  <path fill="#11263F" fill-rule="evenodd" d="M347.472 21.397C344.578 16.999 339.378 14.802 331.874 14.8059945 324.367 14.81 318.479 17.014 314.212 21.417 309.943 25.821 307.165 32.079 305.875 40.188L301.492 68.534C300.203 76.558 301.004 82.77 303.897 87.169 306.79 91.567 311.99 93.764 319.496 93.7590085 327.003 93.755 332.89 91.551 337.158 87.148 341.426 82.746 344.205 76.532 345.494 68.507L349.877 40.162C351.167 32.051 350.364 25.796 347.472 21.397M302.109 16.636C301.763 16.206 301.375 15.99 300.944 15.99 298.615 15.991 296.069 16.446 293.309 17.353 290.547 18.26 288.264 19.449 286.452 20.916L286.45 17.94C286.363 17.508 286.126 17.078 285.737 16.646 285.349 16.215 284.896 15.999 284.378 16L272.343 16.006C271.91 16.006 271.457 16.223 270.984 16.655 270.51 17.087 270.229 17.519 270.144 17.95L258.54 91.208C258.454 91.64 258.606 92.071 258.994 92.502 259.382 92.934 259.791 93.148 260.223 93.148L274.718 93.139C275.236 93.139 275.754 92.923 276.271 92.491 276.788 92.06 277.09 91.629 277.176 91.197L284.138 46.671C284.654 43.653 285.837 41.43 287.693 40.005 289.547 38.581 291.681 37.867 294.098 37.866L297.462 37.863C297.894 37.863 298.369 37.627 298.886 37.151 299.403 36.677 299.705 36.179 299.792 35.662L302.628 17.93C302.628 17.5 302.453 17.069 302.109 16.636M240.079 37.283L234.665 71.712C234.491 72.575 234.039 73.245 233.307 73.718 232.573 74.194 231.774 74.43 230.913 74.4310029 230.049 74.432 229.315 74.173 228.712 73.656 228.286 73.292 228.063 72.768 228.023 72.104L233.63 36.749C233.852 35.967 234.228 35.364 234.772 34.957 235.461 34.439 236.28 34.179 237.23 34.1779973 238.179 34.177 238.933 34.459 239.496 35.018 240.056 35.58 240.25 36.334 240.079 37.283zM259.163 28.276C258.945 25.558 258.319 23.209 257.282 21.224 256.246 19.241 254.756 17.689 252.815 16.569 250.873 15.449 248.434 14.888 245.501 14.8899947 244.81 14.8899947 243.386 15.043 241.231 15.345 239.074 15.65 236.745 16.708 234.244 18.52L232.084 20.01C231.37 19.028 230.497 18.127 229.425 17.324 227.528 15.901 224.68 15.192 220.882 15.195L217.647 15.196C215.059 15.198 213.032 15.501 211.565 16.106 211.134 16.278 210.682 16.559 210.207 16.948 209.734 17.336 209.453 17.789 209.366 18.307L207.174 31.639C207.089 32.07 207.239 32.48 207.628 32.868 208.017 33.256 208.427 33.45 208.858 33.45 209.634 33.362 210.368 33.296 211.058 33.254 211.75 33.209 212.438 33.188 213.128 33.188 214.079 33.187 214.681 33.489 214.94 34.092 215.176 34.641 215.21 35.273 215.088 35.965L202.534 115.077C202.447 115.507 202.599 115.938 202.987 116.371 203.375 116.801 203.784 117.017 204.217 117.017L218.712 117.008C219.229 117.008 219.747 116.792 220.265 116.361 220.782 115.927 221.083 115.497 221.17 115.066L222.559 106.319C222.573 106.271 222.61 106.222 222.62 106.174L225.002 91.152C226.716 92.43 228.346 93.201 229.889 93.457 231.442 93.714 232.563 93.843 233.254 93.843 236.273 93.842 238.904 93.277 241.148 92.156 243.39 91.035 245.33 89.458 246.969 87.428 248.605 85.401 249.942 83.026 250.976 80.308 252.01 77.589 252.785 74.634 253.301 71.441L258.716 37.271C259.231 33.993 259.379 30.994 259.163 28.276L259.163 28.276zM198.217 16.082L186.181 16.089C186.145 16.089 186.113 16.11 186.078 16.112L183.718 16.113C183.2 16.113 182.683 16.331 182.166 16.761 181.648 17.194 181.345 17.625 181.261 18.056L181.128 18.88C181.126 18.879 181.123 18.88 181.121 18.879L180.537 22.579 173.416 67.092C173.168 67.755 172.781 68.278 172.235 68.642 171.459 69.16 170.638 69.42 169.777 69.421 168.914 69.421 168.178 69.184 167.577 68.71 166.971 68.237 166.754 67.567 166.928 66.704L170.467 44.397C170.477 44.308 170.473 44.226 170.492 44.133L174.211 20.105C174.208 20.105 174.207 20.104 174.204 20.104L174.53 18.06C174.615 17.629 174.466 17.198 174.077 16.766 173.688 16.336 173.277 16.12 172.847 16.12L159.066 16.129C158.549 16.129 158.03 16.345 157.513 16.776 156.996 17.21 156.692 17.64 156.608 18.071L153.805 33.226C153.46 34.586 153.165 35.992 152.933 37.463L152.361 41.034 150.286 52.256C149.769 55.45 147.433 70 147.651 72.759 147.835 75.119 147.806 77.208 148.438 79.03 148.743 80.256 149.148 81.396 149.66 82.438 150.652 84.466 152.121 86.041 154.063 87.16 156.004 88.281 158.442 88.839 161.376 88.838 162.065 88.837 163.23 88.707 164.87 88.448 166.505 88.188 168.355 87.413 170.418 86.124L169.127 93.63C168.696 95.27 167.883 96.723 166.634 97.545 165.383 98.364 163.815 98.55 162.78 98.55 161.829 98.551 160.946 98.465 160.126 98.294 159.305 98.12 158.508 98.036 157.731 98.036 157.299 98.037 156.847 98.273 156.374 98.749 155.899 99.223 155.618 99.72 155.533 100.238L153.213 114.994C153.125 115.423 153.256 115.835 153.602 116.222 153.946 116.611 154.334 116.846 154.767 116.933 155.457 117.105 156.233 117.235 157.096 117.32 157.958 117.405 158.822 117.492 159.685 117.578 160.633 117.577 161.626 117.62 162.662 117.706 166.803 117.704 170.339 116.795 173.272 114.981 176.204 113.168 178.641 111.138 180.581 108.893 182.52 106.648 183.963 104.469 184.912 102.356 185.078 101.987 185.219 101.671 185.363 101.348 185.639 100.777 185.902 100.191 186.148 99.585 186.407 99.001 186.604 98.551 186.721 98.278 186.749 98.178 186.771 98.045 186.793 97.913 187.376 96.197 187.842 94.341 188.167 92.316L199.901 18.022C199.985 17.591 199.835 17.161 199.447 16.729 199.058 16.298 198.647 16.082 198.217 16.082M117.566 73.818C117.393 74.94 116.855 75.759 115.95 76.278 115.045 76.796 114.158 77.055 113.297 77.056 112.088 77.056 111.14 76.734 110.45 76.087 109.757 75.44 109.627 73.996 110.059 71.752L110.574 68.645C110.832 66.748 111.327 65.259 112.06 64.179 112.792 63.101 113.567 62.282 114.389 61.718 115.208 61.158 116.048 60.792 116.911 60.618 117.772 60.445 118.506 60.357 119.112 60.357L119.758 60.356 117.566 73.818zM122.967 14.9279945C116.15 14.932 110.564 16.964 106.21 21.021 101.855 25.081 98.947 31.854 97.486 41.345 97.4 41.779 97.553 42.209 97.941 42.639 98.329 43.072 98.738 43.286 99.171 43.286L112.371 43.278C112.889 43.277 113.406 43.063 113.924 42.629 114.441 42.199 114.742 41.768 114.83 41.336 115.258 38.316 115.926 36.396 116.832 35.575 117.737 34.754 118.708 34.343 119.742 34.342 120.949 34.342 121.878 34.688 122.526 35.377 123.174 36.069 123.282 37.751 122.852 40.423L121.95 46.12C120.999 45.948 119.986 45.841 118.908 45.797 117.829 45.755 116.858 45.734 115.996 45.734 109.352 45.739 104.004 47.963 99.952 52.41 95.899 56.856 93.272 62.747 92.068 70.08 91.553 73.101 91.403 76.034 91.621 78.88 91.837 81.727 92.465 84.273 93.502 86.515 94.539 88.758 96.071 90.547 98.1 91.883 100.126 93.22 102.738 93.887 105.931 93.8840101 106.707 93.8840101 108.174 93.732 110.331 93.429 112.486 93.127 114.772 92.025 117.188 90.124L117.318 91.29C117.403 91.722 117.62 92.153 117.966 92.584 118.31 93.015 118.742 93.23 119.26 93.229L131.296 93.222C131.727 93.222 132.18 93.007 132.655 92.574 133.127 92.143 133.408 91.712 133.496 91.28L141.488 40.284C142.778 32.173 141.888 25.919 138.825 21.519 135.758 17.121 130.472 14.924 122.967 14.9279945L122.967 14.9279945zM88.674 17.667L81.039 17.671 83.488 2.27C83.573 1.839 83.4 1.407 82.97.975 82.537.545 82.064.328 81.545.32899656L67.051.337C66.619.337 66.165.555 65.693.985 65.217 1.419 64.937 1.85 64.852 2.28L53.764 72.82C53.076 77.221 53.165 80.76 54.029 83.433 54.892 86.107 56.187 88.178 57.915 89.642 59.642 91.11 61.69 92.079 64.065 92.551 66.437 93.025 68.745 93.259 70.989 93.2580032 72.196 93.257 73.49 93.192 74.871 93.062 76.251 92.931 77.33 92.782 78.107 92.607 78.624 92.435 79.12 92.153 79.594 91.764 80.067 91.377 80.349 90.923 80.435 90.406L82.499 77.204C82.582 76.773 82.432 76.362 82.044 75.974 81.656 75.587 81.245 75.392 80.814 75.393 80.21 75.567 79.346 75.674 78.226 75.717 77.104 75.763 76.068 75.784 75.121 75.785 74.344 75.785 73.761 75.527 73.373 75.008 72.984 74.492 72.745 73.889 72.66 73.198 72.572 72.507 72.572 71.796 72.659 71.062 72.743 70.33 72.829 69.748 72.915 69.314L77.815 37.863 85.451 37.858C85.881 37.858 86.356 37.622 86.874 37.145 87.391 36.672 87.692 36.174 87.779 35.657L90.358 19.607C90.442 19.176 90.293 18.746 89.903 18.313 89.515 17.882 89.105 17.667 88.674 17.667M45.645 19.699C44.047 18.017 41.998 16.812 39.496 16.079 36.992 15.348 34.231 14.982 31.212 14.982998 28.106 14.985 25.195 15.355 22.477 16.088 19.76 16.825 17.322 18.033 15.167 19.717 13.01 21.401 11.2 23.602 9.735 26.321 8.269 29.039 7.236 32.339 6.635 36.223 6.034 40.365 6.122 43.816 6.9 46.576 7.679 49.337 8.844 51.687 10.399 53.628 11.954 55.568 13.702 57.229 15.644 58.607 17.585 59.987 19.376 61.323 21.017 62.616 22.656 63.909 23.973 65.29 24.967 66.755 25.958 68.222 26.282 70.034 25.94 72.19 25.682 74.002 25.121 75.296 24.26 76.074 23.397 76.851 22.32 77.239 21.025 77.24 20.076 77.241 19.363 77.005 18.89 76.53 18.415 76.056 18.091 75.474 17.917 74.784 17.744 74.093 17.701 73.295 17.787 72.388 17.872 71.482998 17.958 70.599 18.045 69.736 18.216 69.133 18.085 68.658 17.655 68.312 17.223 67.969 16.75 67.796 16.231 67.796L3.031 67.804C2.598 67.804 2.125 68.021 1.607 68.452 1.09 68.884.787 69.315.702 69.746-.502 77.427.387 83.38 3.366 87.604 6.346 91.832 11.631 93.941 19.223 93.9370057 23.278 93.934 26.794 93.219 29.77 91.795 32.746 90.369 35.289 88.536 37.402 86.291 39.514 84.046 41.196 81.521 42.445 78.715 43.693 75.913 44.532 73.085 44.964 70.238 45.48 66.614 45.326 63.572 44.505 61.113 43.683 58.655 42.496 56.521 40.942 54.71 39.389 52.899 37.641 51.304 35.698 49.923 33.756 48.546 31.963 47.144 30.325 45.721 28.685 44.298 27.389 42.704 26.439 40.935 25.488 39.169 25.228 36.988 25.658 34.4 25.743 33.711 26.089 33.041 26.692 32.393 27.295 31.746 28.117 31.421 29.151 31.421 30.617 31.421 31.501 31.981 31.806 33.102 32.107 34.224 32.173 35.647 32.002 37.373L31.745 38.796C31.658 39.401 31.852 39.877 32.328 40.219 32.801 40.565 33.298 40.737 33.816 40.737L46.628 40.729C47.059 40.728 47.513 40.513 47.987 40.081 48.46 39.65 48.741 39.218 48.827 38.787L49.086 37.104C49.686 32.878 49.663 29.338 49.015 26.491 48.365 23.645 47.241 21.379 45.645 19.699"/>
</svg>
