<svg width="100%" height="100%">
   
    <!-- Define the pattern -->
    <pattern id="pattern-pro"
             x="0"
             y="0"
             patternUnits="userSpaceOnUse"
             width="40"
             height="40"
             > 
   
    <g id="tile-pro">
        <path class="tile-pro" d="M10.3339328,1.5024785 C9.69203449,0.499844252 8.53829577,-0.00113253593 6.87315821,0 C5.20757904,0.000909489022 3.90148056,0.503474519 2.95442116,1.50724323 C2.00736176,2.51101194 1.39085678,3.93793359 1.10490623,5.78664685 L0.13223272,12.2489751 C-0.153717834,14.0784026 0.0240352128,15.4944335 0.666154295,16.4972946 C1.30783175,17.5001557 2.46157048,18.0011325 4.12692884,18 C5.79250801,17.9990905 7.09860649,17.4965255 8.04566589,16.4927568 C8.9927253,15.4889881 9.60923027,14.0722765 9.89518083,12.2428491 L10.8678543,5.78052077 C11.1538049,3.93158063 10.9756102,2.50533964 10.3339328,1.5024785"/>
    </g>
          
    </pattern>
    
    <rect x="0" y="0" width="100%" height="100%" fill="url(#pattern-pro)" />
 </svg>