<?xml version="1.0" encoding="UTF-8"?>
<svg width="151px" height="104px" viewBox="0 0 151 104" version="1.1" xmlns="http://www.w3.org/2000/svg" xmlns:xlink="http://www.w3.org/1999/xlink">
    <!-- Generator: Sketch 61.2 (89653) - https://sketch.com -->
    <title>pro</title>
    <desc>Created with Sketch.</desc>
    <g id="pro" stroke="none" stroke-width="1" fill="none" fill-rule="evenodd">
        <path d="M146.503,6.885 C143.595,2.466 138.371,0.258 130.83,0.262991527 C123.287,0.267 117.372,2.482 113.083,6.906 C108.794,11.33 106.002,17.619 104.706,25.767 L100.302,54.249 C99.006,62.312 99.812,68.554 102.719,72.973 C105.625,77.393 110.851,79.601 118.393,79.5960085 C125.936,79.592 131.851,77.378 136.14,72.953 C140.429,68.529 143.22,62.286 144.515,54.222 L148.92,25.74 C150.216,17.591 149.409,11.305 146.503,6.885" id="o" fill="#141F2D"></path>
        <path d="M100.922,2.102 C100.575,1.669 100.185,1.452 99.752,1.452 C97.411,1.454 94.853,1.91 92.08,2.822 C89.305,3.734 87.01,4.928 85.19,6.402 L85.188,3.412 C85.101,2.979 84.863,2.546 84.472,2.111 C84.082,1.679 83.627,1.462 83.105,1.462 L71.013,1.469 C70.578,1.469 70.122,1.688 69.647,2.12 C69.17,2.555 68.889,2.988 68.803,3.421 L57.143,77.032 C57.056,77.467 57.21,77.899 57.6,78.332 C57.99,78.767 58.4,78.982 58.835,78.982 L73.399,78.973 C73.919,78.973 74.44,78.757 74.96,78.322 C75.479,77.889 75.782,77.456 75.869,77.021 L82.865,32.282 C83.383,29.248 84.572,27.015 86.436,25.583 C88.299,24.151 90.444,23.435 92.873,23.433 L96.253,23.431 C96.687,23.431 97.164,23.193 97.684,22.715 C98.203,22.24 98.506,21.739 98.593,21.219 L101.443,3.402 C101.443,2.969 101.268,2.536 100.922,2.102" id="r" fill="#141F2D"></path>
        <path d="M37.848,22.848 L32.407,57.442 C32.232,58.31 31.778,58.983 31.043,59.459 C30.305,59.937 29.502,60.1750029 28.637,60.1750029 C27.77,60.176 27.032,59.916 26.426,59.397 C26.003,59.035 25.773,58.523 25.729,57.866 L31.374,22.266 C31.598,21.501 31.977,20.913 32.515,20.51 C33.208,19.989 34.03,19.7289973 34.984,19.7289973 C35.937,19.728 36.696,20.01 37.261,20.573 C37.824,21.137 38.02,21.895 37.848,22.848 Z M55.133,6.712 C54.092,4.719 52.595,3.16 50.645,2.033 C48.693,0.909 46.242,0.345 43.295,0.3469947 C42.601,0.3469947 41.17,0.501 39.005,0.805 C36.837,1.111 34.497,2.173 31.984,3.995 L29.827,5.483 C29.109,4.498 28.219,3.599 27.142,2.793 C25.236,1.363 22.374,0.65 18.558,0.653 L15.307,0.655 C12.707,0.656 10.67,0.961 9.196,1.568 C8.763,1.742 8.309,2.024 7.832,2.415 C7.356,2.805 7.074,3.26 6.987,3.781 L4.784,17.177 C4.699,17.609 4.849,18.022 5.24,18.412 C5.631,18.802 6.043,18.996 6.476,18.996 C7.256,18.908 7.994,18.843 8.687,18.799 C9.382,18.754 10.073,18.733 10.767,18.733 C11.722,18.732 12.327,19.035 12.588,19.643 C12.768,20.061 12.843,20.524 12.815,21.027 L0.121,101.017 C0.034,101.449 0.187,101.882 0.577,102.317 C0.967,102.75 1.378,102.966003 1.813,102.966003 L16.377,102.957 C16.897,102.957 17.418,102.74 17.938,102.306 C18.457,101.871 18.76,101.438 18.847,101.005 L20.225,92.325 C20.257,92.24 20.288,92.155 20.304,92.071 L22.698,76.978 C24.42,78.262 26.058,79.035 27.608,79.293 C29.169,79.551 30.295,79.681 30.989,79.68 C34.023,79.679 36.666,79.112 38.921,77.985 C41.173,76.858 43.124,75.274 44.77,73.234 C46.415,71.198 47.758,68.812 48.797,66.081 C49.836,63.349 50.614,60.379 51.132,57.17 L56.574,22.837 C57.092,19.543 57.24,16.529 57.023,13.798 C56.804,11.067 56.175,8.707 55.133,6.712 L55.133,6.712 Z" id="p" fill="#141F2D"></path>
    </g>
</svg>