<svg xmlns="http://www.w3.org/2000/svg" width="29" height="38" viewBox="0 0 29 38">
    <path fill="#CDCDCD" fill-rule="nonzero" d="M14.5 29a3.5 3.5 0 1 0 0-7 3.5 3.5 0 0 0 0 7zm10.875-16.333A3.622 3.622 0 0 1 29 16.286V34.38A3.622 3.622 0 0 1 25.375 38H3.625A3.622 3.622 0 0 1 0 34.381V16.286a3.621 3.621 0 0 1 3.625-3.62h1.813V9.049C5.438 4.05 9.495 0 14.5 0a9.07 9.07 0 0 1 6.408 2.65 9.04 9.04 0 0 1 2.654 6.398v3.619h1.813zM14.5 4C11.462 4 9 6.418 9 9.4V13h11V9.4C20 6.418 17.538 4 14.5 4z"/>
</svg>
